<svg width="170" height="32" viewBox="0 0 170 32" fill="none" xmlns="http://www.w3.org/2000/svg">
    <path
        d="M0 16C0 7.16344 7.16344 0 16 0C24.8366 0 32 7.16344 32 16C32 24.8366 24.8366 32 16 32C7.16344 32 0 24.8366 0 16Z"
        fill="#EDEDED" />
    <path
        d="M11.502 7C9.01727 7.00233 7 9.01727 7 11.502H11.502V7ZM11.502 11.502V15.9998H15.9998V11.502H11.502ZM15.9998 11.502V15.9998H24.1816V11.502H15.9998ZM15.9998 15.9998V20.4976L24.1816 20.5022V15.9998H15.9998ZM7 15.9998V20.4976L11.502 20.5022V15.9998H7ZM11.502 20.5022V24.9954L15.9998 25V20.4976L11.502 20.5022Z"
        fill="#E5012C" />
    <path
        d="M47.4773 10.0775C47.4912 9.52897 47.3481 9.09666 47.0479 8.78053C46.7477 8.46439 46.3503 8.30632 45.8557 8.30632C45.5904 8.30632 45.35 8.35825 45.1344 8.4621C44.9191 8.56573 44.7521 8.70286 44.6334 8.87347C44.5147 9.04386 44.4553 9.22287 44.4553 9.4105C44.4553 9.68759 44.5182 9.91896 44.6438 10.1046C44.7695 10.2901 44.9235 10.4382 45.1059 10.549C45.2885 10.6597 45.5374 10.7807 45.8524 10.9123C45.8803 10.9223 45.9063 10.9343 45.9303 10.9483C46.04 10.9762 46.1348 11.0042 46.2147 11.0321C47.3776 11.401 48.338 11.7706 49.0959 12.1408C49.8538 12.5109 50.4836 13.026 50.9852 13.6862C51.487 14.3464 51.722 15.1921 51.6901 16.2234C51.6622 17.1031 51.4248 17.8916 50.978 18.5889C50.5312 19.2859 49.8709 19.8344 48.9971 20.2344C48.1235 20.6343 47.0694 20.8342 45.8347 20.8342C44.7395 20.8342 43.7495 20.6104 42.8648 20.1627C41.9802 19.7148 41.2849 19.0913 40.7792 18.2924C40.2737 17.4934 40.014 16.5893 40 15.58V15.4426H44.2636C44.2836 15.8314 44.3709 16.164 44.5254 16.4404C44.6801 16.7166 44.8811 16.929 45.1285 17.0776C45.3759 17.2262 45.6581 17.3095 45.9751 17.3276C46.4239 17.3494 46.7969 17.2367 47.094 16.9896C47.3914 16.7421 47.5221 16.423 47.4861 16.032C47.4582 15.7427 47.3345 15.4968 47.115 15.2943C46.8957 15.0919 46.6195 14.9189 46.2864 14.7753C45.9532 14.6315 45.5194 14.4679 44.9848 14.2844C44.0373 13.9733 43.2504 13.6626 42.624 13.3524C41.9976 13.0421 41.456 12.5769 40.9991 11.9566C40.5425 11.3363 40.3142 10.5284 40.3142 9.5329C40.3142 8.64537 40.57 7.85557 41.0816 7.16353C41.5932 6.47126 42.2813 5.9376 43.146 5.56256C44.0108 5.18752 44.9509 5 45.9663 5C47.0015 5 47.948 5.20301 48.8056 5.60903C49.6635 6.01484 50.3447 6.58984 50.8494 7.33403C51.354 8.078 51.6063 8.94165 51.6063 9.92496V10.0775H47.4773Z"
        fill="#E5012C" />
    <path
        d="M63.7808 9.36896V20.5829H58.5509C57.4379 20.5829 56.4691 20.3606 55.6444 19.9159C54.8197 19.4711 54.1903 18.8433 53.7561 18.0326C53.3222 17.2218 53.1052 16.2916 53.1052 15.242V9.36896H57.0785V15.5179C57.0785 15.8423 57.146 16.1232 57.2811 16.3606C57.4164 16.5979 57.5978 16.7791 57.8253 16.9042C58.0529 17.029 58.3046 17.0934 58.5806 17.0976H59.8075V9.36896H63.7808Z"
        fill="#E5012C" />
    <path
        d="M66.1726 26.1961V9.36896H72.101C73.2763 9.36896 74.3219 9.59379 75.2378 10.0434C76.1536 10.4931 76.8701 11.1401 77.3872 11.9844C77.9043 12.8288 78.1628 13.8156 78.1628 14.9448C78.1628 16.104 77.9043 17.1281 77.3872 18.0172C76.8701 18.9062 76.1536 19.5981 75.2378 20.0927C74.3219 20.587 73.2763 20.8342 72.101 20.8342C71.6731 20.8342 71.2908 20.749 70.9539 20.5786C70.6173 20.4083 70.3528 20.1723 70.1606 19.8708V26.1961H66.1726ZM69.8946 14.9717C69.8946 15.4181 69.9877 15.813 70.174 16.1564C70.3606 16.4996 70.624 16.7644 70.9644 16.951C71.3047 17.1373 71.6946 17.2304 72.134 17.2304C72.5671 17.2304 72.9542 17.1373 73.2955 16.951C73.6367 16.7644 73.9015 16.4997 74.09 16.1567C74.2785 15.8137 74.3728 15.4218 74.3728 14.9808C74.3728 14.5521 74.2778 14.1716 74.0878 13.8394C73.8979 13.5069 73.633 13.2497 73.2928 13.068C72.9529 12.886 72.5656 12.7951 72.1307 12.7951H69.8946V14.9717Z"
        fill="#E5012C" />
    <path
        d="M78.7754 14.9815C78.7754 13.8286 79.0251 12.8078 79.5245 11.919C80.0241 11.0299 80.7235 10.3407 81.6226 9.85132C82.5217 9.36174 83.5577 9.11694 84.7306 9.11694C86.02 9.11694 87.1487 9.40319 88.1167 9.97568C89.0848 10.5482 89.8012 11.3747 90.2659 12.4553C90.7306 13.5357 90.8768 14.8052 90.7044 16.2637H82.7408C82.7875 16.5429 82.8884 16.7981 83.0435 17.0291C83.1832 17.3117 83.3992 17.5507 83.6915 17.7462C83.9841 17.9417 84.3413 18.0432 84.7633 18.0509C85.0611 18.0587 85.3442 18.0075 85.6125 17.8974C85.8811 17.7872 86.0913 17.6631 86.2432 17.5249H90.3205C89.8582 18.5628 89.1464 19.3739 88.1851 19.9581C87.2241 20.5422 86.0726 20.8342 84.7306 20.8342C83.5577 20.8342 82.5197 20.5895 81.6167 20.1002C80.7139 19.6106 80.0146 18.9232 79.5189 18.0381C79.0232 17.153 78.7754 16.1341 78.7754 14.9815ZM86.7553 13.8527C86.701 13.4864 86.5769 13.1838 86.3829 12.9449C86.189 12.6905 85.9523 12.4997 85.6731 12.3725C85.3938 12.2453 85.0836 12.1817 84.7424 12.1817C84.3839 12.1817 84.0635 12.2528 83.7812 12.3948C83.4989 12.5366 83.2645 12.7309 83.0782 12.9776C82.9774 13.0939 82.8999 13.2239 82.8455 13.3674C82.7912 13.511 82.7525 13.6728 82.7294 13.8527H86.7553Z"
        fill="#E5012C" />
    <path d="M98.7934 13.1649H96.4132V20.5829H92.4399V9.36896H98.7934V13.1649Z" fill="#E5012C" />
    <path
        d="M106.317 20.8342C104.941 20.8342 103.786 20.5605 102.852 20.0131C101.918 19.4657 101.223 18.7179 100.768 17.7698C100.312 16.8213 100.085 15.7451 100.085 14.541V5.25134H104.354V14.6739C104.354 15.2998 104.532 15.8036 104.888 16.1852C105.244 16.5667 105.726 16.7575 106.335 16.7575C106.95 16.7575 107.437 16.5667 107.795 16.1852C108.153 15.8036 108.332 15.2998 108.332 14.6739V5.25134H112.601V14.4376C112.601 15.6319 112.366 16.713 111.896 17.6811C111.425 18.6489 110.716 19.4164 109.767 19.9837C108.818 20.5507 107.669 20.8342 106.317 20.8342Z"
        fill="#E5012C" />
    <path d="M114.731 5.25134H119V20.5829H114.731V5.25134Z" fill="#E5012C" />
    <path
        d="M117.252 27.1504C117.177 27.1504 117.107 27.1443 117.043 27.1321C116.98 27.1209 116.93 27.1077 116.892 27.0924L117.02 26.6626C117.1 26.686 117.172 26.6972 117.235 26.6962C117.298 26.6951 117.353 26.6753 117.401 26.6367C117.45 26.5991 117.491 26.5361 117.525 26.4477L117.572 26.3212L116.723 23.9313H117.308L117.848 25.6993H117.872L118.413 23.9313H119L118.063 26.5559C118.019 26.6799 117.961 26.7861 117.889 26.8745C117.817 26.9639 117.728 27.032 117.624 27.0787C117.52 27.1265 117.396 27.1504 117.252 27.1504Z"
        fill="#979797" />
    <path
        d="M115.398 26.3182C115.17 26.3182 114.972 26.2679 114.804 26.1673C114.636 26.0667 114.506 25.926 114.414 25.7451C114.322 25.5642 114.277 25.3529 114.277 25.111C114.277 24.8692 114.322 24.6573 114.414 24.4754C114.506 24.2936 114.636 24.1523 114.804 24.0517C114.972 23.9511 115.17 23.9008 115.398 23.9008C115.627 23.9008 115.825 23.9511 115.993 24.0517C116.161 24.1523 116.29 24.2936 116.382 24.4754C116.474 24.6573 116.52 24.8692 116.52 25.111C116.52 25.3529 116.474 25.5642 116.382 25.7451C116.29 25.926 116.161 26.0667 115.993 26.1673C115.825 26.2679 115.627 26.3182 115.398 26.3182ZM115.401 25.8762C115.525 25.8762 115.629 25.8421 115.712 25.7741C115.796 25.705 115.858 25.6125 115.898 25.4966C115.94 25.3808 115.961 25.2518 115.961 25.1095C115.961 24.9662 115.94 24.8367 115.898 24.7208C115.858 24.604 115.796 24.511 115.712 24.4419C115.629 24.3728 115.525 24.3383 115.401 24.3383C115.274 24.3383 115.169 24.3728 115.084 24.4419C115.001 24.511 114.939 24.604 114.897 24.7208C114.856 24.8367 114.836 24.9662 114.836 25.1095C114.836 25.2518 114.856 25.3808 114.897 25.4966C114.939 25.6125 115.001 25.705 115.084 25.7741C115.169 25.8421 115.274 25.8762 115.401 25.8762Z"
        fill="#979797" />
    <path d="M113.81 23.1509V26.2724H113.258V23.1509H113.81Z" fill="#979797" />
    <path
        d="M110.575 27.1504V23.9313H111.118V24.3184H111.15C111.179 24.2615 111.219 24.2011 111.27 24.1371C111.322 24.072 111.392 24.0167 111.481 23.9709C111.569 23.9242 111.682 23.9008 111.819 23.9008C112 23.9008 112.163 23.9471 112.308 24.0395C112.455 24.131 112.571 24.2666 112.656 24.4465C112.742 24.6253 112.786 24.8448 112.786 25.1049C112.786 25.362 112.743 25.5805 112.659 25.7603C112.575 25.9402 112.46 26.0774 112.315 26.1719C112.169 26.2664 112.005 26.3136 111.821 26.3136C111.687 26.3136 111.575 26.2913 111.487 26.2466C111.399 26.2018 111.327 26.148 111.274 26.085C111.221 26.021 111.18 25.9605 111.15 25.9036H111.127V27.1504H110.575ZM111.117 25.1019C111.117 25.2533 111.138 25.3859 111.181 25.4997C111.224 25.6135 111.287 25.7024 111.368 25.7664C111.45 25.8294 111.55 25.8609 111.667 25.8609C111.789 25.8609 111.891 25.8284 111.973 25.7634C112.055 25.6973 112.117 25.6074 112.159 25.4936C112.202 25.3788 112.223 25.2482 112.223 25.1019C112.223 24.9566 112.202 24.8275 112.161 24.7147C112.119 24.6019 112.057 24.5135 111.975 24.4495C111.892 24.3855 111.79 24.3535 111.667 24.3535C111.549 24.3535 111.449 24.3845 111.366 24.4465C111.284 24.5085 111.222 24.5953 111.179 24.7071C111.137 24.8189 111.117 24.9505 111.117 25.1019Z"
        fill="#979797" />
    <path
        d="M109.068 26.3182C108.833 26.3182 108.63 26.2694 108.46 26.1719C108.29 26.0733 108.159 25.9341 108.068 25.7542C107.976 25.5734 107.931 25.3605 107.931 25.1156C107.931 24.8748 107.976 24.6634 108.068 24.4815C108.16 24.2986 108.289 24.1564 108.455 24.0548C108.621 23.9521 108.815 23.9008 109.039 23.9008C109.183 23.9008 109.319 23.9242 109.447 23.9709C109.576 24.0167 109.69 24.0878 109.789 24.1843C109.888 24.2808 109.966 24.4038 110.023 24.5532C110.08 24.7015 110.109 24.8783 110.109 25.0836V25.2528H108.19V24.8809H109.58C109.579 24.7752 109.556 24.6812 109.511 24.5989C109.467 24.5156 109.404 24.45 109.324 24.4023C109.245 24.3545 109.152 24.3306 109.046 24.3306C108.934 24.3306 108.835 24.3581 108.749 24.4129C108.664 24.4668 108.597 24.5379 108.549 24.6263C108.503 24.7137 108.479 24.8097 108.478 24.9144V25.2391C108.478 25.3752 108.503 25.4921 108.553 25.5896C108.602 25.6862 108.672 25.7603 108.761 25.8122C108.851 25.863 108.955 25.8884 109.075 25.8884C109.156 25.8884 109.228 25.8772 109.293 25.8548C109.358 25.8315 109.415 25.7974 109.462 25.7527C109.51 25.708 109.546 25.6526 109.571 25.5866L110.086 25.6445C110.053 25.7807 109.991 25.8995 109.9 26.0012C109.809 26.1018 109.694 26.18 109.552 26.2359C109.411 26.2908 109.25 26.3182 109.068 26.3182Z"
        fill="#979797" />
    <path
        d="M106.003 26.2724H104.945V23.1509H106.024C106.334 23.1509 106.601 23.2134 106.823 23.3384C107.047 23.4623 107.218 23.6407 107.338 23.8733C107.458 24.106 107.518 24.3845 107.518 24.7086C107.518 25.0338 107.458 25.3132 107.337 25.5469C107.217 25.7806 107.044 25.96 106.817 26.0849C106.591 26.2099 106.32 26.2724 106.003 26.2724ZM105.511 25.7832H105.976C106.193 25.7832 106.374 25.7435 106.52 25.6643C106.665 25.584 106.774 25.4646 106.848 25.3061C106.921 25.1466 106.957 24.9474 106.957 24.7086C106.957 24.4698 106.921 24.2717 106.848 24.1142C106.774 23.9557 106.666 23.8373 106.523 23.759C106.381 23.6798 106.204 23.6401 105.992 23.6401H105.511V25.7832Z"
        fill="#979797" />
    <path
        d="M103.335 25.8456L103.315 26.0133C103.301 26.1413 103.275 26.2714 103.239 26.4035C103.203 26.5366 103.166 26.6591 103.126 26.7708C103.086 26.8826 103.054 26.9705 103.03 27.0345H102.658C102.672 26.9725 102.691 26.8882 102.716 26.7815C102.741 26.6748 102.766 26.5549 102.789 26.4218C102.812 26.2887 102.828 26.1535 102.836 26.0164L102.847 25.8456H103.335Z"
        fill="#979797" />
    <path
        d="M101.179 26.3182C100.944 26.3182 100.742 26.2694 100.571 26.1719C100.401 26.0733 100.271 25.9341 100.179 25.7542C100.088 25.5734 100.042 25.3605 100.042 25.1156C100.042 24.8748 100.088 24.6634 100.179 24.4815C100.272 24.2986 100.401 24.1564 100.566 24.0548C100.732 23.9521 100.927 23.9008 101.15 23.9008C101.294 23.9008 101.431 23.9242 101.559 23.9709C101.688 24.0167 101.801 24.0878 101.9 24.1843C102 24.2808 102.078 24.4038 102.135 24.5532C102.192 24.7015 102.22 24.8783 102.22 25.0836V25.2528H100.301V24.8809H101.691C101.69 24.7752 101.667 24.6812 101.623 24.5989C101.578 24.5156 101.515 24.45 101.435 24.4023C101.356 24.3545 101.263 24.3306 101.158 24.3306C101.045 24.3306 100.946 24.3581 100.86 24.4129C100.775 24.4668 100.709 24.5379 100.661 24.6263C100.614 24.7137 100.59 24.8097 100.589 24.9144V25.2391C100.589 25.3752 100.614 25.4921 100.664 25.5896C100.714 25.6862 100.783 25.7603 100.873 25.8122C100.962 25.863 101.067 25.8884 101.187 25.8884C101.267 25.8884 101.34 25.8772 101.405 25.8548C101.47 25.8315 101.526 25.7974 101.574 25.7527C101.622 25.708 101.658 25.6526 101.682 25.5866L102.197 25.6445C102.165 25.7807 102.103 25.8995 102.011 26.0012C101.921 26.1018 101.805 26.18 101.664 26.2359C101.522 26.2908 101.361 26.3182 101.179 26.3182Z"
        fill="#979797" />
    <path
        d="M99.7065 23.9313V24.358H98.3606V23.9313H99.7065ZM98.6929 23.3704H99.2446V25.5682C99.2446 25.6424 99.2558 25.6993 99.2782 25.739C99.3015 25.7776 99.332 25.804 99.3696 25.8182C99.4072 25.8324 99.4489 25.8396 99.4946 25.8396C99.5291 25.8396 99.5606 25.837 99.5891 25.8319C99.6186 25.8269 99.6409 25.8223 99.6562 25.8182L99.7491 26.2496C99.7197 26.2597 99.6775 26.2709 99.6226 26.2831C99.5688 26.2953 99.5027 26.3024 99.4245 26.3044C99.2863 26.3085 99.1618 26.2877 99.0511 26.2419C98.9403 26.1952 98.8524 26.1231 98.7874 26.0255C98.7234 25.928 98.6919 25.806 98.6929 25.6597V23.3704Z"
        fill="#979797" />
    <path
        d="M96.7463 26.3197C96.598 26.3197 96.4643 26.2933 96.3455 26.2405C96.2276 26.1866 96.1341 26.1073 96.065 26.0027C95.9969 25.898 95.9629 25.769 95.9629 25.6155C95.9629 25.4834 95.9873 25.3742 96.0361 25.2878C96.0848 25.2015 96.1514 25.1324 96.2357 25.0805C96.3201 25.0287 96.4151 24.9896 96.5207 24.9632C96.6274 24.9357 96.7377 24.9159 96.8515 24.9037C96.9887 24.8895 97.0999 24.8768 97.1853 24.8656C97.2706 24.8534 97.3326 24.8351 97.3712 24.8108C97.4109 24.7854 97.4307 24.7462 97.4307 24.6934V24.6843C97.4307 24.5694 97.3966 24.4805 97.3286 24.4175C97.2605 24.3545 97.1624 24.323 97.0344 24.323C96.8993 24.323 96.7921 24.3525 96.7128 24.4114C96.6346 24.4704 96.5817 24.54 96.5543 24.6202L96.0391 24.5471C96.0797 24.4048 96.1468 24.2859 96.2403 24.1904C96.3338 24.0939 96.4481 24.0217 96.5832 23.974C96.7184 23.9252 96.8678 23.9008 97.0313 23.9008C97.1441 23.9008 97.2564 23.914 97.3682 23.9404C97.48 23.9669 97.5821 24.0106 97.6746 24.0715C97.767 24.1315 97.8412 24.2133 97.8971 24.3169C97.954 24.4206 97.9824 24.5501 97.9824 24.7056V26.2725H97.452V25.9509H97.4337C97.4002 26.0159 97.353 26.0769 97.292 26.1338C97.232 26.1896 97.1563 26.2349 97.0649 26.2694C96.9744 26.3029 96.8683 26.3197 96.7463 26.3197ZM96.8896 25.9143C97.0004 25.9143 97.0964 25.8924 97.1777 25.8487C97.259 25.804 97.3215 25.7451 97.3651 25.6719C97.4099 25.5988 97.4322 25.519 97.4322 25.4326V25.1568C97.4149 25.171 97.3855 25.1842 97.3438 25.1964C97.3032 25.2086 97.2574 25.2192 97.2066 25.2284C97.1558 25.2375 97.1055 25.2457 97.0557 25.2528C97.0059 25.2599 96.9628 25.266 96.9262 25.2711C96.8439 25.2822 96.7702 25.3005 96.7052 25.3259C96.6401 25.3513 96.5888 25.3869 96.5512 25.4326C96.5136 25.4773 96.4948 25.5353 96.4948 25.6064C96.4948 25.708 96.5319 25.7847 96.6061 25.8365C96.6803 25.8884 96.7748 25.9143 96.8896 25.9143Z"
        fill="#979797" />
    <path d="M95.5054 23.1509V26.2724H94.9536V23.1509H95.5054Z" fill="#979797" />
    <path
        d="M93.8345 25.2878V23.9313H94.3862V26.2724H93.8512V25.8563H93.8268C93.774 25.9874 93.6871 26.0946 93.5662 26.1779C93.4463 26.2613 93.2985 26.3029 93.1227 26.3029C92.9692 26.3029 92.8336 26.2689 92.7157 26.2008C92.5989 26.1317 92.5074 26.0316 92.4414 25.9005C92.3753 25.7684 92.3423 25.6089 92.3423 25.4219V23.9313H92.894V25.3366C92.894 25.4849 92.9347 25.6028 93.016 25.6902C93.0973 25.7776 93.204 25.8213 93.3361 25.8213C93.4174 25.8213 93.4961 25.8015 93.5723 25.7618C93.6485 25.7222 93.711 25.6633 93.7598 25.585C93.8096 25.5058 93.8345 25.4067 93.8345 25.2878Z"
        fill="#979797" />
    <path
        d="M88.4902 26.2725V23.9313H89.0176V24.3291H89.045C89.0938 24.195 89.1746 24.0903 89.2874 24.0151C89.4002 23.9389 89.5348 23.9008 89.6913 23.9008C89.8498 23.9008 89.9834 23.9394 90.0922 24.0167C90.2019 24.0929 90.2791 24.197 90.3238 24.3291H90.3482C90.4 24.1991 90.4874 24.0954 90.6104 24.0182C90.7344 23.9399 90.8812 23.9008 91.0509 23.9008C91.2663 23.9008 91.4421 23.9689 91.5782 24.1051C91.7144 24.2412 91.7825 24.4399 91.7825 24.701V26.2725H91.2292V24.7864C91.2292 24.6411 91.1906 24.5349 91.1134 24.4678C91.0361 24.3997 90.9416 24.3657 90.8299 24.3657C90.6968 24.3657 90.5926 24.4074 90.5174 24.4907C90.4432 24.573 90.4061 24.6802 90.4061 24.8123V26.2725H89.8651V24.7635C89.8651 24.6426 89.8285 24.5461 89.7553 24.4739C89.6832 24.4018 89.5887 24.3657 89.4718 24.3657C89.3926 24.3657 89.3204 24.386 89.2554 24.4267C89.1903 24.4663 89.1385 24.5227 89.0999 24.5958C89.0613 24.668 89.042 24.7523 89.042 24.8489V26.2725H88.4902Z"
        fill="#979797" />
    <path
        d="M87.371 26.2724V23.9313H87.9228V26.2724H87.371ZM87.6484 23.599C87.5611 23.599 87.4859 23.57 87.4229 23.5121C87.3599 23.4532 87.3284 23.3826 87.3284 23.3003C87.3284 23.2169 87.3599 23.1463 87.4229 23.0884C87.4859 23.0295 87.5611 23 87.6484 23C87.7369 23 87.812 23.0295 87.874 23.0884C87.937 23.1463 87.9685 23.2169 87.9685 23.3003C87.9685 23.3826 87.937 23.4532 87.874 23.5121C87.812 23.57 87.7369 23.599 87.6484 23.599Z"
        fill="#979797" />
    <path
        d="M86.3046 24.009C86.2904 23.8759 86.2304 23.7723 86.1247 23.6981C86.0201 23.6239 85.8839 23.5868 85.7162 23.5868C85.5984 23.5868 85.4973 23.6046 85.4129 23.6402C85.3286 23.6757 85.2641 23.724 85.2194 23.785C85.1746 23.8459 85.1518 23.9155 85.1508 23.9938C85.1508 24.0588 85.1655 24.1152 85.195 24.163C85.2254 24.2107 85.2666 24.2514 85.3184 24.2849C85.3702 24.3174 85.4277 24.3448 85.4907 24.3672C85.5537 24.3896 85.6172 24.4084 85.6812 24.4236L85.9738 24.4968C86.0917 24.5242 86.205 24.5613 86.3137 24.608C86.4235 24.6548 86.5215 24.7137 86.6079 24.7848C86.6953 24.856 86.7644 24.9418 86.8152 25.0424C86.866 25.143 86.8914 25.2609 86.8914 25.396C86.8914 25.5789 86.8447 25.74 86.7512 25.8792C86.6577 26.0174 86.5225 26.1256 86.3457 26.2039C86.1699 26.2811 85.9571 26.3197 85.7071 26.3197C85.4642 26.3197 85.2534 26.2821 85.0746 26.2069C84.8967 26.1317 84.7575 26.022 84.6569 25.8777C84.5573 25.7334 84.5035 25.5576 84.4954 25.3503H85.0517C85.0598 25.459 85.0934 25.5495 85.1523 25.6216C85.2112 25.6938 85.2879 25.7476 85.3824 25.7832C85.478 25.8187 85.5847 25.8365 85.7025 25.8365C85.8255 25.8365 85.9332 25.8182 86.0257 25.7816C86.1191 25.7441 86.1923 25.6922 86.2451 25.6262C86.298 25.5591 86.3249 25.4809 86.3259 25.3915C86.3249 25.3102 86.301 25.2431 86.2543 25.1903C86.2075 25.1364 86.142 25.0917 86.0577 25.0561C85.9743 25.0196 85.8768 24.987 85.765 24.9586L85.4099 24.8671C85.1528 24.8011 84.9496 24.701 84.8002 24.5669C84.6518 24.4317 84.5777 24.2524 84.5777 24.0288C84.5777 23.8449 84.6275 23.6839 84.727 23.5457C84.8276 23.4075 84.9643 23.3003 85.137 23.2241C85.3098 23.1468 85.5054 23.1082 85.7239 23.1082C85.9454 23.1082 86.1395 23.1468 86.3061 23.2241C86.4738 23.3003 86.6054 23.4064 86.7009 23.5426C86.7964 23.6778 86.8457 23.8332 86.8487 24.009H86.3046Z"
        fill="#979797" />
    <path
        d="M82.9975 25.8456L82.9777 26.0133C82.9635 26.1413 82.9381 26.2714 82.9015 26.4035C82.866 26.5366 82.8284 26.6591 82.7887 26.7708C82.7491 26.8826 82.7171 26.9705 82.6927 27.0345H82.3208C82.335 26.9725 82.3543 26.8882 82.3787 26.7815C82.4041 26.6748 82.4285 26.5549 82.4519 26.4218C82.4753 26.2887 82.491 26.1535 82.4991 26.0164L82.5098 25.8456H82.9975Z"
        fill="#979797" />
    <path
        d="M80.5149 26.3136C80.3309 26.3136 80.1663 26.2663 80.021 26.1718C79.8757 26.0773 79.7609 25.9402 79.6766 25.7603C79.5922 25.5804 79.55 25.362 79.55 25.1049C79.55 24.8448 79.5927 24.6253 79.6781 24.4464C79.7645 24.2666 79.8808 24.1309 80.0271 24.0395C80.1734 23.947 80.3365 23.9008 80.5164 23.9008C80.6536 23.9008 80.7664 23.9242 80.8548 23.9709C80.9432 24.0166 81.0133 24.072 81.0651 24.137C81.1169 24.201 81.1571 24.2615 81.1855 24.3184H81.2084V23.1509H81.7617V26.2724H81.219V25.9036H81.1855C81.1571 25.9605 81.1159 26.0209 81.062 26.0849C81.0082 26.1479 80.9371 26.2018 80.8487 26.2465C80.7603 26.2912 80.649 26.3136 80.5149 26.3136ZM80.6688 25.8609C80.7857 25.8609 80.8852 25.8294 80.9675 25.7664C81.0499 25.7024 81.1123 25.6135 81.155 25.4997C81.1977 25.3859 81.219 25.2532 81.219 25.1018C81.219 24.9504 81.1977 24.8189 81.155 24.7071C81.1134 24.5953 81.0514 24.5084 80.9691 24.4464C80.8878 24.3845 80.7877 24.3535 80.6688 24.3535C80.5459 24.3535 80.4432 24.3855 80.3609 24.4495C80.2786 24.5135 80.2166 24.6019 80.175 24.7147C80.1333 24.8275 80.1125 24.9565 80.1125 25.1018C80.1125 25.2482 80.1333 25.3787 80.175 25.4936C80.2176 25.6074 80.2801 25.6973 80.3624 25.7633C80.4458 25.8284 80.5479 25.8609 80.6688 25.8609Z"
        fill="#979797" />
    <path d="M79.0789 23.1509V26.2724H78.5271V23.1509H79.0789Z" fill="#979797" />
    <path
        d="M77.4079 26.2724V23.9313H77.9597V26.2724H77.4079ZM77.6853 23.599C77.5979 23.599 77.5227 23.57 77.4597 23.5121C77.3967 23.4532 77.3652 23.3826 77.3652 23.3003C77.3652 23.2169 77.3967 23.1463 77.4597 23.0884C77.5227 23.0295 77.5979 23 77.6853 23C77.7737 23 77.8489 23.0295 77.9109 23.0884C77.9739 23.1463 78.0054 23.2169 78.0054 23.3003C78.0054 23.3826 77.9739 23.4532 77.9109 23.5121C77.8489 23.57 77.7737 23.599 77.6853 23.599Z"
        fill="#979797" />
    <path
        d="M76.2888 25.2878V23.9313H76.8406V26.2724H76.3056V25.8563H76.2812C76.2284 25.9874 76.1415 26.0946 76.0206 26.1779C75.9007 26.2613 75.7528 26.3029 75.577 26.3029C75.4236 26.3029 75.2879 26.2689 75.1701 26.2008C75.0532 26.1317 74.9618 26.0316 74.8957 25.9005C74.8297 25.7684 74.7966 25.6089 74.7966 25.4219V23.9313H75.3484V25.3366C75.3484 25.4849 75.389 25.6028 75.4703 25.6902C75.5516 25.7776 75.6583 25.8213 75.7904 25.8213C75.8717 25.8213 75.9504 25.8015 76.0267 25.7618C76.1029 25.7222 76.1654 25.6633 76.2141 25.585C76.2639 25.5058 76.2888 25.4067 76.2888 25.2878Z"
        fill="#979797" />
    <path
        d="M72 26.2724V23.1509H73.195C73.4205 23.1509 73.608 23.1864 73.7574 23.2576C73.9078 23.3277 74.0201 23.4237 74.0942 23.5456C74.1694 23.6676 74.207 23.8058 74.207 23.9602C74.207 24.0872 74.1826 24.196 74.1339 24.2864C74.0851 24.3758 74.0196 24.4485 73.9372 24.5044C73.8549 24.5602 73.763 24.6004 73.6614 24.6248V24.6553C73.7721 24.6614 73.8783 24.6954 73.9799 24.7574C74.0826 24.8183 74.1664 24.9047 74.2314 25.0165C74.2964 25.1283 74.329 25.2634 74.329 25.4219C74.329 25.5835 74.2898 25.7288 74.2116 25.8578C74.1334 25.9859 74.0155 26.087 73.858 26.1612C73.7005 26.2353 73.5023 26.2724 73.2636 26.2724H72ZM72.5655 25.7999H73.1736C73.3789 25.7999 73.5267 25.7608 73.6172 25.6826C73.7086 25.6033 73.7543 25.5017 73.7543 25.3777C73.7543 25.2853 73.7315 25.2019 73.6858 25.1278C73.64 25.0526 73.575 24.9936 73.4907 24.951C73.4063 24.9073 73.3057 24.8854 73.1889 24.8854H72.5655V25.7999ZM72.5655 24.4785H73.1249C73.2224 24.4785 73.3103 24.4607 73.3885 24.4251C73.4668 24.3885 73.5283 24.3372 73.573 24.2712C73.6187 24.2041 73.6416 24.1248 73.6416 24.0334C73.6416 23.9125 73.5989 23.8129 73.5135 23.7346C73.4292 23.6564 73.3037 23.6173 73.137 23.6173H72.5655V24.4785Z"
        fill="#979797" />
    <rect x="131" y="9" width="39" height="14" rx="7" fill="url(#paint0_linear_16512_10289)" />
    <rect x="131.5" y="9.5" width="38" height="13" rx="6.5" stroke="#DEDEDE" stroke-opacity="0.36" />
    <path
        d="M138.244 19H137.312L139.406 13.1818H140.42L142.514 19H141.582L139.937 14.2386H139.892L138.244 19ZM138.4 16.7216H141.423V17.4602H138.4V16.7216ZM143.354 19V13.1818H144.232V18.2443H146.868V19H143.354ZM147.87 19V13.1818H149.944C150.396 13.1818 150.771 13.2642 151.069 13.429C151.366 13.5937 151.588 13.8191 151.736 14.1051C151.884 14.3892 151.958 14.7093 151.958 15.0653C151.958 15.4233 151.883 15.7453 151.733 16.0312C151.586 16.3153 151.362 16.5407 151.063 16.7074C150.766 16.8722 150.391 16.9545 149.941 16.9545H148.515V16.2102H149.861C150.147 16.2102 150.379 16.161 150.557 16.0625C150.735 15.9621 150.866 15.8258 150.949 15.6534C151.033 15.4811 151.074 15.285 151.074 15.0653C151.074 14.8456 151.033 14.6506 150.949 14.4801C150.866 14.3097 150.734 14.1761 150.554 14.0795C150.376 13.983 150.141 13.9347 149.85 13.9347H148.748V19H147.87ZM152.987 19V13.1818H153.865V15.7102H156.765V13.1818H157.646V19H156.765V16.4631H153.865V19H152.987ZM159.416 19H158.484L160.578 13.1818H161.592L163.686 19H162.754L161.109 14.2386H161.064L159.416 19ZM159.572 16.7216H162.595V17.4602H159.572V16.7216Z"
        fill="white" />
    <defs>
        <linearGradient id="paint0_linear_16512_10289" x1="132.194" y1="11.5455" x2="166.704" y2="26.5587"
            gradientUnits="userSpaceOnUse">
            <stop stop-color="#FC4437" />
            <stop offset="0.259707" stop-color="#EC7B2D" />
            <stop offset="0.535" stop-color="#D27C68" />
            <stop offset="0.775673" stop-color="#9043DE" />
            <stop offset="1" stop-color="#DE55F6" />
        </linearGradient>
    </defs>
</svg>